o convex_0
v 0.167837 -0.101196 0.076190
v -0.251190 -0.251176 -0.076190
v -0.251190 -0.251176 0.076190
v 0.251190 -0.251176 -0.076190
v -0.053553 -0.098810 -0.076190
v 0.251190 -0.251176 0.076190
v -0.053553 -0.098810 0.076190
v 0.165477 -0.098810 -0.076190
v -0.244011 -0.241659 0.076190
v 0.248781 -0.241659 -0.076190
v -0.244011 -0.241659 -0.076190
v 0.165477 -0.098810 0.076190
v 0.248781 -0.241659 0.076190
v 0.172607 -0.108341 -0.076190
v 0.172607 -0.108341 0.076190
v -0.251190 -0.248804 0.076190
f 9 11 16 
f 3 2 4 
f 4 2 5 
f 1 3 6 
f 3 4 6 
f 3 1 7 
f 5 7 8 
f 4 5 8 
f 3 7 9 
f 7 5 9 
f 6 4 10 
f 4 8 10 
f 5 2 11 
f 9 5 11 
f 7 1 12 
f 8 7 12 
f 1 8 12 
f 1 6 13 
f 6 10 13 
f 13 10 14 
f 8 1 14 
f 10 8 14 
f 1 13 15 
f 13 14 15 
f 14 1 15 
f 2 3 16 
f 3 9 16 
f 11 2 16 
o convex_1
v -0.053545 -0.098810 -0.076190
v 0.053520 0.098810 0.076190
v 0.058314 0.091652 0.076190
v -0.053545 -0.098810 0.076190
v -0.165468 0.098810 -0.076190
v 0.165476 -0.096411 -0.076190
v -0.165468 0.096411 0.076190
v 0.053520 0.098810 -0.076190
v 0.165476 -0.098790 0.076190
v -0.165468 0.098810 0.076190
v 0.165476 -0.098790 -0.076190
v -0.163071 0.091652 -0.076190
v 0.163079 -0.091652 0.076190
v -0.058307 -0.091652 0.076190
v 0.058314 0.091652 -0.076190
v -0.058307 -0.091652 -0.076190
v 0.163079 -0.091652 -0.076190
v -0.163071 0.091652 0.076190
f 28 30 34 
f 19 18 20 
f 17 21 22 
f 20 18 23 
f 18 19 24 
f 21 18 24 
f 22 21 24 
f 19 20 25 
f 20 17 25 
f 18 21 26 
f 23 18 26 
f 21 23 26 
f 17 22 27 
f 25 17 27 
f 22 25 27 
f 21 17 28 
f 23 21 28 
f 19 25 29 
f 25 22 29 
f 17 20 30 
f 20 23 30 
f 24 19 31 
f 22 24 31 
f 19 29 31 
f 28 17 32 
f 17 30 32 
f 30 28 32 
f 29 22 33 
f 22 31 33 
f 31 29 33 
f 23 28 34 
f 30 23 34 
o convex_2
v 0.063093 0.105968 0.076190
v -0.251190 0.246418 -0.076190
v -0.251190 0.251190 -0.076190
v 0.251190 0.251190 -0.076190
v 0.053553 0.098839 -0.076190
v -0.251190 0.251190 0.076190
v 0.251190 0.251190 0.076190
v -0.165428 0.098839 0.076190
v -0.165428 0.098839 -0.076190
v 0.053553 0.098839 0.076190
v 0.244011 0.241660 -0.076190
v 0.244011 0.241660 0.076190
v -0.172607 0.108355 0.076190
v -0.248781 0.241645 0.076190
v -0.172607 0.108355 -0.076190
v -0.248781 0.241645 -0.076190
v 0.251190 0.248804 0.076190
f 46 45 51 
f 36 37 38 
f 36 38 39 
f 37 36 40 
f 38 37 40 
f 40 35 41 
f 38 40 41 
f 35 40 42 
f 36 39 43 
f 39 42 43 
f 39 35 44 
f 35 42 44 
f 42 39 44 
f 35 39 45 
f 39 38 45 
f 41 35 46 
f 35 45 46 
f 42 40 47 
f 43 42 47 
f 40 36 48 
f 47 40 48 
f 47 48 49 
f 36 43 49 
f 43 47 49 
f 48 36 50 
f 49 48 50 
f 36 49 50 
f 38 41 51 
f 45 38 51 
f 41 46 51 
