# WaveFront *.obj file (generated by Autodesk ATF)

mtllib bolt.mtl

g bolt

v -0.250000 -0.250000 -0.075000
v 0.250000 -0.250000 -0.075000
v 0.250000 -0.250000 0.075000
v -0.250000 -0.250000 0.075000
v -0.050000 -0.100000 -0.075000
v -0.050000 -0.100000 0.075000
v -0.250000 0.250000 -0.075000
v -0.250000 0.250000 0.075000
v 0.250000 0.250000 -0.075000
v 0.250000 0.250000 0.075000
v 0.050000 0.100000 -0.075000
v 0.050000 0.100000 0.075000
vt 0.000000 0.000000 0.000000
vt 50.000000 0.000000 0.000000
vt 0.000000 15.000000 0.000000
vt 50.000000 15.000000 0.000000
vt -0.000000 0.000000 0.000000
vt 25.000000 0.000000 0.000000
vt -0.000000 15.000000 0.000000
vt 25.000000 15.000000 0.000000
vt 0.000000 0.000000 0.000000
vt 40.311289 0.000000 0.000000
vt 0.000000 15.000000 0.000000
vt 40.311289 15.000000 0.000000
vt -0.000000 0.000000 0.000000
vt 50.000000 0.000000 0.000000
vt -0.000000 15.000000 0.000000
vt 50.000000 15.000000 0.000000
vt 0.000000 0.000000 0.000000
vt 25.000000 0.000000 0.000000
vt 0.000000 15.000000 0.000000
vt 25.000000 15.000000 0.000000
vt 0.000000 0.000000 0.000000
vt 40.311289 0.000000 0.000000
vt 0.000000 15.000000 0.000000
vt 40.311289 15.000000 0.000000
vt -25.000000 -25.000000 0.000000
vt 25.000000 -25.000000 0.000000
vt -5.000000 -10.000000 0.000000
vt 5.000000 10.000000 0.000000
vt -25.000000 25.000000 0.000000
vt 25.000000 25.000000 0.000000
vt -25.000000 -25.000000 0.000000
vt 5.000000 -10.000000 0.000000
vt -5.000000 10.000000 0.000000
vt 25.000000 25.000000 0.000000
vt -25.000000 25.000000 0.000000
vt 25.000000 -25.000000 0.000000
vn 0.000000 -100.000000 0.000000
vn 0.000000 -100.000000 0.000000
vn 0.000000 -100.000000 0.000000
vn 0.000000 -100.000000 0.000000
vn -60.000000 80.000000 0.000000
vn -60.000000 80.000000 0.000000
vn -60.000000 80.000000 0.000000
vn -60.000000 80.000000 0.000000
vn -86.824314 -49.613894 0.000000
vn -86.824314 -49.613894 0.000000
vn -86.824314 -49.613894 0.000000
vn -86.824314 -49.613894 0.000000
vn 0.000000 100.000000 0.000000
vn 0.000000 100.000000 0.000000
vn 0.000000 100.000000 0.000000
vn 0.000000 100.000000 0.000000
vn 60.000000 -80.000000 0.000000
vn 60.000000 -80.000000 0.000000
vn 60.000000 -80.000000 0.000000
vn 60.000000 -80.000000 0.000000
vn 86.824314 49.613894 0.000000
vn 86.824314 49.613894 0.000000
vn 86.824314 49.613894 0.000000
vn 86.824314 49.613894 0.000000
vn 0.000000 0.000000 100.000000
vn 0.000000 0.000000 100.000000
vn 0.000000 0.000000 100.000000
vn 0.000000 0.000000 100.000000
vn 0.000000 0.000000 100.000000
vn 0.000000 0.000000 100.000000
vn 0.000000 0.000000 -100.000000
vn 0.000000 0.000000 -100.000000
vn 0.000000 0.000000 -100.000000
vn 0.000000 0.000000 -100.000000
vn 0.000000 0.000000 -100.000000
vn 0.000000 0.000000 -100.000000
usemtl Gold_-_Polished
f 1/1/1 2/2/2 4/3/3
f 4/3/3 2/2/2 3/4/4
f 5/5/5 1/6/6 6/7/7
f 6/7/7 1/6/6 4/8/8
f 7/9/9 5/10/10 8/11/11
f 8/11/11 5/10/10 6/12/12
f 9/13/13 7/14/14 10/15/15
f 10/15/15 7/14/14 8/16/16
f 11/17/17 9/18/18 12/19/19
f 12/19/19 9/18/18 10/20/20
f 2/21/21 11/22/22 3/23/23
f 3/23/23 11/22/22 12/24/24
f 4/25/25 3/26/26 6/27/27
f 6/27/27 3/26/26 12/28/28
f 6/27/27 12/28/28 8/29/29
f 8/29/29 12/28/28 10/30/30
f 2/31/31 5/32/32 11/33/33
f 11/33/33 5/32/32 7/34/34
f 11/33/33 7/34/34 9/35/35
f 2/31/31 1/36/36 5/32/32
# 12 vertices
# 36 texture params
# 36 normals
# 20 facets

# 1 groups
