o convex_0
v 0.496328 -0.502587 -0.101587
v 0.105837 -0.001000 0.101587
v 0.108960 -0.004191 0.101587
v -0.500487 -0.502587 0.101587
v -0.103654 -0.001000 -0.101587
v -0.500487 -0.502587 -0.101587
v 0.496328 -0.502587 0.101587
v 0.105837 -0.001000 -0.101587
v -0.103654 -0.001000 0.101587
v -0.500487 -0.496205 0.101587
v 0.493108 -0.493013 -0.101587
v -0.500487 -0.496205 -0.101587
v 0.493108 -0.493013 0.101587
v -0.132243 -0.035958 0.101587
v 0.108960 -0.004191 -0.101587
v -0.106776 -0.004191 -0.101587
f 12 14 16 
f 3 2 4 
f 1 4 6 
f 5 1 6 
f 3 4 7 
f 4 1 7 
f 2 3 8 
f 1 5 8 
f 5 2 8 
f 4 2 9 
f 2 5 9 
f 6 4 10 
f 4 9 10 
f 7 1 11 
f 1 8 11 
f 5 6 12 
f 6 10 12 
f 3 7 13 
f 7 11 13 
f 11 3 13 
f 10 9 14 
f 12 10 14 
f 8 3 15 
f 3 11 15 
f 11 8 15 
f 9 5 16 
f 5 12 16 
f 14 9 16 
o convex_1
v -0.103581 -0.001000 -0.101587
v 0.502677 0.500587 0.101587
v 0.502677 0.494205 0.101587
v -0.500487 0.500587 0.101587
v 0.502677 0.500587 -0.101587
v 0.105772 -0.001000 0.101587
v -0.500487 0.500587 -0.101587
v 0.109012 0.002191 -0.101587
v -0.106821 0.002191 0.101587
v -0.500487 0.494205 -0.101587
v 0.502677 0.494205 -0.101587
v -0.500487 0.494205 0.101587
v 0.105772 -0.001000 -0.101587
v -0.103581 -0.001000 0.101587
v 0.109012 0.002191 0.101587
v -0.106821 0.002191 -0.101587
f 25 26 32 
f 19 18 20 
f 18 19 21 
f 20 18 21 
f 19 20 22 
f 21 17 23 
f 20 21 23 
f 17 21 24 
f 22 20 25 
f 23 17 26 
f 20 23 26 
f 21 19 27 
f 24 21 27 
f 19 24 27 
f 25 20 28 
f 20 26 28 
f 26 25 28 
f 22 17 29 
f 17 24 29 
f 24 22 29 
f 17 22 30 
f 22 25 30 
f 25 17 30 
f 19 22 31 
f 24 19 31 
f 22 24 31 
f 17 25 32 
f 26 17 32 
