# WaveFront *.obj file (generated by Autodesk ATF)

mtllib meteor.mtl

g meteor

v 0.377491 0.902848 -0.150000
v 0.084140 0.973540 -0.150000
v 0.084140 0.973540 0.150000
v 0.377491 0.902848 0.150000
v 0.684140 0.473540 -0.150000
v 0.684140 0.473540 0.150000
v 0.871640 -0.326460 -0.150000
v 0.871640 -0.326460 0.150000
v 0.684140 -0.626460 -0.150000
v 0.684140 -0.626460 0.150000
v -0.315860 -1.026460 -0.150000
v -0.315860 -1.026460 0.150000
v -0.815860 -0.326460 -0.150000
v -0.815860 -0.326460 0.150000
v -0.815860 0.173540 -0.150000
v -0.815860 0.173540 0.150000
v -0.315860 0.973540 -0.150000
v -0.315860 0.973540 0.150000
vt 0.000000 0.000000 0.000000
vt 30.174851 0.000000 0.000000
vt 0.000000 30.000000 0.000000
vt 30.174851 30.000000 0.000000
vt 0.000000 0.000000 0.000000
vt 52.757872 0.000000 0.000000
vt 0.000000 30.000000 0.000000
vt 52.757872 30.000000 0.000000
vt 0.000000 0.000000 0.000000
vt 82.167892 0.000000 0.000000
vt 0.000000 30.000000 0.000000
vt 82.167892 30.000000 0.000000
vt 0.000000 0.000000 0.000000
vt 35.377429 0.000000 0.000000
vt 0.000000 30.000000 0.000000
vt 35.377429 30.000000 0.000000
vt 0.000000 0.000000 0.000000
vt 107.703296 0.000000 0.000000
vt 0.000000 30.000000 0.000000
vt 107.703296 30.000000 0.000000
vt 0.000000 0.000000 0.000000
vt 86.023253 0.000000 0.000000
vt 0.000000 30.000000 0.000000
vt 86.023253 30.000000 0.000000
vt 0.000000 0.000000 0.000000
vt 50.000000 0.000000 0.000000
vt 0.000000 30.000000 0.000000
vt 50.000000 30.000000 0.000000
vt 0.000000 0.000000 0.000000
vt 94.339811 0.000000 0.000000
vt 0.000000 30.000000 0.000000
vt 94.339811 30.000000 0.000000
vt 0.000000 0.000000 0.000000
vt 40.000000 0.000000 0.000000
vt 0.000000 30.000000 0.000000
vt 40.000000 30.000000 0.000000
vt -34.375000 100.000000 0.000000
vt -84.375000 20.000000 0.000000
vt 5.625000 100.000000 0.000000
vt 65.625000 50.000000 0.000000
vt 34.960110 92.930846 0.000000
vt -84.375000 -30.000000 0.000000
vt -34.375000 -100.000000 0.000000
vt 65.625000 -60.000000 0.000000
vt 84.375000 -30.000000 0.000000
vt 34.375000 100.000000 0.000000
vt -5.625000 100.000000 0.000000
vt 84.375000 20.000000 0.000000
vt -65.625000 50.000000 0.000000
vt 84.375000 -30.000000 0.000000
vt 34.375000 -100.000000 0.000000
vt -65.625000 -60.000000 0.000000
vt -84.375000 -30.000000 0.000000
vt -34.960110 92.930846 0.000000
vn 23.427303 97.217084 0.000000
vn 23.427303 97.217084 0.000000
vn 23.427303 97.217084 0.000000
vn 23.427303 97.217084 0.000000
vn 81.373347 58.123819 0.000000
vn 81.373347 58.123819 0.000000
vn 81.373347 58.123819 0.000000
vn 81.373347 58.123819 0.000000
vn 97.361631 22.819132 0.000000
vn 97.361631 22.819132 0.000000
vn 97.361631 22.819132 0.000000
vn 97.361631 22.819132 0.000000
vn 84.799830 -52.999894 0.000000
vn 84.799830 -52.999894 0.000000
vn 84.799830 -52.999894 0.000000
vn 84.799830 -52.999894 0.000000
vn 37.139068 -92.847669 0.000000
vn 37.139068 -92.847669 0.000000
vn 37.139068 -92.847669 0.000000
vn 37.139068 -92.847669 0.000000
vn -81.373347 -58.123819 0.000000
vn -81.373347 -58.123819 0.000000
vn -81.373347 -58.123819 0.000000
vn -81.373347 -58.123819 0.000000
vn -100.000000 0.000000 0.000000
vn -100.000000 0.000000 0.000000
vn -100.000000 0.000000 0.000000
vn -100.000000 0.000000 0.000000
vn -84.799830 52.999894 0.000000
vn -84.799830 52.999894 0.000000
vn -84.799830 52.999894 0.000000
vn -84.799830 52.999894 0.000000
vn 0.000000 100.000000 0.000000
vn 0.000000 100.000000 0.000000
vn 0.000000 100.000000 0.000000
vn 0.000000 100.000000 0.000000
vn 0.000000 0.000000 100.000000
vn 0.000000 0.000000 100.000000
vn 0.000000 0.000000 100.000000
vn 0.000000 0.000000 100.000000
vn 0.000000 0.000000 100.000000
vn 0.000000 0.000000 100.000000
vn 0.000000 0.000000 100.000000
vn 0.000000 0.000000 100.000000
vn 0.000000 0.000000 100.000000
vn 0.000000 0.000000 -100.000000
vn 0.000000 0.000000 -100.000000
vn 0.000000 0.000000 -100.000000
vn 0.000000 0.000000 -100.000000
vn 0.000000 0.000000 -100.000000
vn 0.000000 0.000000 -100.000000
vn 0.000000 0.000000 -100.000000
vn 0.000000 0.000000 -100.000000
vn 0.000000 0.000000 -100.000000
usemtl Surface_-_Matte
f 1/1/1 2/2/2 4/3/3
f 4/3/3 2/2/2 3/4/4
f 5/5/5 1/6/6 6/7/7
f 6/7/7 1/6/6 4/8/8
f 7/9/9 5/10/10 8/11/11
f 8/11/11 5/10/10 6/12/12
f 9/13/13 7/14/14 10/15/15
f 10/15/15 7/14/14 8/16/16
f 11/17/17 9/18/18 12/19/19
f 12/19/19 9/18/18 10/20/20
f 13/21/21 11/22/22 14/23/23
f 14/23/23 11/22/22 12/24/24
f 15/25/25 13/26/26 16/27/27
f 16/27/27 13/26/26 14/28/28
f 17/29/29 15/30/30 18/31/31
f 18/31/31 15/30/30 16/32/32
f 2/33/33 17/34/34 3/35/35
f 3/35/35 17/34/34 18/36/36
f 18/37/37 16/38/38 3/39/39
f 3/39/39 16/38/38 6/40/40
f 3/39/39 6/40/40 4/41/41
f 16/38/38 14/42/42 6/40/40
f 6/40/40 14/42/42 12/43/43
f 6/40/40 12/43/43 10/44/44
f 10/44/44 8/45/45 6/40/40
f 17/46/46 2/47/47 15/48/48
f 15/48/48 2/47/47 5/49/49
f 15/48/48 5/49/49 13/50/50
f 13/50/50 5/49/49 11/51/51
f 11/51/51 5/49/49 9/52/52
f 9/52/52 5/49/49 7/53/53
f 2/47/47 1/54/54 5/49/49
# 18 vertices
# 54 texture params
# 54 normals
# 32 facets

# 1 groups
