o convex_0
v -0.705813 -0.409496 -0.083516
v -0.199685 -0.043871 0.085234
v 0.236168 -0.050921 0.085234
v -0.199685 -0.043871 -0.083516
v 0.236168 -0.409496 -0.083516
v -0.705813 -0.409496 0.085234
v -0.705813 -0.050921 0.085234
v 0.236168 -0.409496 0.085234
v -0.705813 -0.050921 -0.083516
v 0.236168 -0.050921 -0.083516
v -0.509006 -0.043871 -0.083516
v -0.509006 -0.043871 0.085234
f 11 7 12 
f 2 3 4 
f 1 4 5 
f 3 2 6 
f 1 5 6 
f 1 6 7 
f 6 2 7 
f 5 3 8 
f 3 6 8 
f 6 5 8 
f 4 1 9 
f 1 7 9 
f 4 3 10 
f 5 4 10 
f 3 5 10 
f 2 4 11 
f 4 9 11 
f 9 7 11 
f 7 2 12 
f 2 11 12 
o convex_1
v -0.199656 0.448317 0.085234
v -0.509005 -0.043871 -0.083516
v -0.199656 -0.043871 -0.083516
v -0.509005 -0.043871 0.085234
v -0.509005 0.448317 -0.083516
v -0.199656 -0.043871 0.085234
v -0.199656 0.448317 -0.083516
v -0.509005 0.448317 0.085234
f 17 16 20 
f 14 15 16 
f 15 14 17 
f 14 16 17 
f 15 13 18 
f 16 15 18 
f 13 16 18 
f 13 15 19 
f 17 13 19 
f 15 17 19 
f 16 13 20 
f 13 17 20 
o convex_2
v 0.236282 -0.409496 -0.083516
v 0.454221 -0.043871 0.085234
v 0.454221 -0.043871 -0.083516
v 0.651126 -0.409496 0.085234
v 0.236282 -0.050921 0.085234
v 0.651126 -0.409496 -0.083516
v 0.236282 -0.409496 0.085234
v 0.651126 -0.050921 0.085234
v 0.243348 -0.043871 -0.083516
v 0.651126 -0.050921 -0.083516
v 0.236282 -0.050921 -0.083516
v 0.243348 -0.043871 0.085234
f 29 25 32 
f 24 22 25 
f 21 23 26 
f 24 21 26 
f 21 24 27 
f 25 21 27 
f 24 25 27 
f 23 22 28 
f 22 24 28 
f 24 26 28 
f 23 21 29 
f 22 23 29 
f 26 23 30 
f 23 28 30 
f 28 26 30 
f 21 25 31 
f 29 21 31 
f 25 29 31 
f 25 22 32 
f 22 29 32 
o convex_3
v 0.454251 0.898317 0.085234
v 0.243313 -0.043871 -0.083516
v 0.454251 -0.043871 -0.083516
v 0.243313 -0.043871 0.085234
v 0.243313 0.898317 -0.083516
v 0.454251 -0.043871 0.085234
v 0.454251 0.898317 -0.083516
v 0.243313 0.898317 0.085234
f 37 36 40 
f 34 35 36 
f 35 34 37 
f 34 36 37 
f 35 33 38 
f 36 35 38 
f 33 36 38 
f 33 35 39 
f 37 33 39 
f 35 37 39 
f 36 33 40 
f 33 37 40 
