# WaveFront *.obj file (generated by Autodesk ATF)

mtllib right_triangle.mtl

g right_triangle

v -0.233330 -0.250000 -0.100000
v 0.466670 -0.250000 -0.100000
v 0.466670 -0.250000 0.100000
v -0.233330 -0.250000 0.100000
v -0.233330 0.500000 -0.100000
v -0.233330 0.500000 0.100000
vt 0.000000 0.000000 0.000000
vt 70.000000 0.000000 0.000000
vt 0.000000 20.000000 0.000000
vt 70.000000 20.000000 0.000000
vt 0.000000 0.000000 0.000000
vt 75.000000 0.000000 0.000000
vt 0.000000 20.000000 0.000000
vt 75.000000 20.000000 0.000000
vt 0.000000 0.000000 0.000000
vt 102.591423 0.000000 0.000000
vt 0.000000 20.000000 0.000000
vt 102.591423 20.000000 0.000000
vt 35.000000 -37.500000 0.000000
vt -35.000000 37.500000 0.000000
vt -35.000000 -37.500000 0.000000
vt 35.000000 37.500000 0.000000
vt -35.000000 -37.500000 0.000000
vt 35.000000 -37.500000 0.000000
vn 0.000000 -100.000000 0.000000
vn 0.000000 -100.000000 0.000000
vn 0.000000 -100.000000 0.000000
vn 0.000000 -100.000000 0.000000
vn -100.000000 0.000000 0.000000
vn -100.000000 0.000000 0.000000
vn -100.000000 0.000000 0.000000
vn -100.000000 0.000000 0.000000
vn 73.105527 68.231825 0.000000
vn 73.105527 68.231825 0.000000
vn 73.105527 68.231825 0.000000
vn 73.105527 68.231825 0.000000
vn 0.000000 0.000000 100.000000
vn 0.000000 0.000000 100.000000
vn 0.000000 0.000000 100.000000
vn 0.000000 0.000000 -100.000000
vn 0.000000 0.000000 -100.000000
vn 0.000000 0.000000 -100.000000
usemtl Cherry
f 1/1/1 2/2/2 4/3/3
f 4/3/3 2/2/2 3/4/4
f 5/5/5 1/6/6 6/7/7
f 6/7/7 1/6/6 4/8/8
f 2/9/9 5/10/10 3/11/11
f 3/11/11 5/10/10 6/12/12
f 3/13/13 6/14/14 4/15/15
f 5/16/16 2/17/17 1/18/18
# 6 vertices
# 18 texture params
# 18 normals
# 8 facets

# 1 groups
