# WaveFront *.obj file (generated by Autodesk ATF)

mtllib root.mtl

g root

v -0.015095 0.367529 -0.071500
v 0.194438 -0.261070 -0.071500
v 0.194438 -0.261070 0.071500
v -0.015095 0.367529 0.071500
v -0.322158 -0.451305 -0.071500
v -0.322158 -0.451305 0.071500
v -0.792116 -0.451305 -0.071500
v -0.792116 -0.451305 0.071500
v -0.792116 -0.233199 -0.071500
v -0.792116 -0.233199 0.071500
v -0.453743 -0.233199 -0.071500
v -0.453743 -0.233199 0.071500
v -0.138026 0.608714 -0.071500
v -0.138026 0.608714 0.071500
v 0.114932 0.608714 -0.071500
v 0.114932 0.608714 0.071500
v 0.343549 -0.077138 -0.071500
v 0.343549 -0.077138 0.071500
v 0.921426 -0.077138 -0.071500
v 0.921426 -0.077138 0.071500
v 0.921426 -0.261070 -0.071500
v 0.921426 -0.261070 0.071500
vt -0.000000 0.000000 0.000000
vt 66.260221 0.000000 0.000000
vt -0.000000 14.300000 0.000000
vt 66.260221 14.300000 0.000000
vt 0.000000 0.000000 0.000000
vt 87.451529 0.000000 0.000000
vt 0.000000 14.300000 0.000000
vt 87.451529 14.300000 0.000000
vt 0.000000 0.000000 0.000000
vt 46.995760 0.000000 0.000000
vt 0.000000 14.300000 0.000000
vt 46.995760 14.300000 0.000000
vt -0.000000 0.000000 0.000000
vt 21.810549 0.000000 0.000000
vt -0.000000 14.300000 0.000000
vt 21.810549 14.300000 0.000000
vt -0.000000 0.000000 0.000000
vt 33.837253 0.000000 0.000000
vt 0.000000 14.300000 0.000000
vt 33.837253 14.300000 0.000000
vt -0.000000 0.000000 0.000000
vt 89.916340 0.000000 0.000000
vt 0.000000 14.300000 0.000000
vt 89.916340 14.300000 0.000000
vt -0.000000 0.000000 0.000000
vt 25.295775 0.000000 0.000000
vt -0.000000 14.300000 0.000000
vt 25.295775 14.300000 0.000000
vt 0.000000 0.000000 0.000000
vt 72.295129 0.000000 0.000000
vt 0.000000 14.300000 0.000000
vt 72.295129 14.300000 0.000000
vt -0.000000 0.000000 0.000000
vt 57.787719 0.000000 0.000000
vt -0.000000 14.300000 0.000000
vt 57.787719 14.300000 0.000000
vt 0.000000 0.000000 0.000000
vt 18.393208 0.000000 0.000000
vt 0.000000 14.300000 0.000000
vt 18.393208 14.300000 0.000000
vt -0.000000 0.000000 0.000000
vt 72.698846 0.000000 0.000000
vt -0.000000 14.300000 0.000000
vt 72.698846 14.300000 0.000000
vt -7.975083 28.882497 0.000000
vt 12.978238 -33.977468 0.000000
vt 27.889365 -15.584260 0.000000
vt 85.677085 -33.977468 0.000000
vt 85.677085 -15.584260 0.000000
vt 5.027638 53.000921 0.000000
vt -20.268137 53.000921 0.000000
vt -51.839872 -31.190372 0.000000
vt -85.677125 -31.190372 0.000000
vt -85.677125 -53.000921 0.000000
vt -38.681365 -53.000921 0.000000
vt -85.677105 -15.584260 0.000000
vt -85.677105 -33.977468 0.000000
vt -27.889385 -15.584260 0.000000
vt -12.978258 -33.977468 0.000000
vt 7.975063 28.882497 0.000000
vt 38.681345 -53.000921 0.000000
vt 51.839852 -31.190372 0.000000
vt 20.268117 53.000921 0.000000
vt -5.027658 53.000921 0.000000
vt 85.677105 -53.000921 0.000000
vt 85.677105 -31.190372 0.000000
vn -94.868330 -31.622777 0.000000
vn -94.868330 -31.622777 0.000000
vn -94.868330 -31.622777 0.000000
vn -94.868330 -31.622777 0.000000
vn 93.632918 -35.112344 0.000000
vn 93.632918 -35.112344 0.000000
vn 93.632918 -35.112344 0.000000
vn 93.632918 -35.112344 0.000000
vn 0.000000 -100.000000 0.000000
vn 0.000000 -100.000000 0.000000
vn 0.000000 -100.000000 0.000000
vn 0.000000 -100.000000 0.000000
vn -100.000000 0.000000 0.000000
vn -100.000000 0.000000 0.000000
vn -100.000000 0.000000 0.000000
vn -100.000000 0.000000 0.000000
vn -0.000000 100.000000 0.000000
vn -0.000000 100.000000 0.000000
vn -0.000000 100.000000 0.000000
vn -0.000000 100.000000 0.000000
vn -93.632918 35.112344 0.000000
vn -93.632918 35.112344 0.000000
vn -93.632918 35.112344 0.000000
vn -93.632918 35.112344 0.000000
vn 0.000000 100.000000 0.000000
vn 0.000000 100.000000 0.000000
vn 0.000000 100.000000 0.000000
vn 0.000000 100.000000 0.000000
vn 94.868330 31.622777 0.000000
vn 94.868330 31.622777 0.000000
vn 94.868330 31.622777 0.000000
vn 94.868330 31.622777 0.000000
vn 0.000000 100.000000 0.000000
vn 0.000000 100.000000 0.000000
vn 0.000000 100.000000 0.000000
vn 0.000000 100.000000 0.000000
vn 100.000000 0.000000 0.000000
vn 100.000000 0.000000 0.000000
vn 100.000000 0.000000 0.000000
vn 100.000000 0.000000 0.000000
vn 0.000000 -100.000000 0.000000
vn 0.000000 -100.000000 0.000000
vn 0.000000 -100.000000 0.000000
vn 0.000000 -100.000000 0.000000
vn 0.000000 0.000000 100.000000
vn 0.000000 0.000000 100.000000
vn 0.000000 0.000000 100.000000
vn 0.000000 0.000000 100.000000
vn 0.000000 0.000000 100.000000
vn 0.000000 0.000000 100.000000
vn 0.000000 0.000000 100.000000
vn 0.000000 0.000000 100.000000
vn 0.000000 0.000000 100.000000
vn 0.000000 0.000000 100.000000
vn 0.000000 0.000000 100.000000
vn 0.000000 0.000000 -100.000000
vn 0.000000 0.000000 -100.000000
vn 0.000000 0.000000 -100.000000
vn 0.000000 0.000000 -100.000000
vn 0.000000 0.000000 -100.000000
vn 0.000000 0.000000 -100.000000
vn 0.000000 0.000000 -100.000000
vn 0.000000 0.000000 -100.000000
vn 0.000000 0.000000 -100.000000
vn 0.000000 0.000000 -100.000000
vn 0.000000 0.000000 -100.000000
usemtl Bamboo_Light_-_Semigloss
f 1/1/1 2/2/2 4/3/3
f 4/3/3 2/2/2 3/4/4
f 5/5/5 1/6/6 6/7/7
f 6/7/7 1/6/6 4/8/8
f 7/9/9 5/10/10 8/11/11
f 8/11/11 5/10/10 6/12/12
f 9/13/13 7/14/14 10/15/15
f 10/15/15 7/14/14 8/16/16
f 11/17/17 9/18/18 12/19/19
f 12/19/19 9/18/18 10/20/20
f 13/21/21 11/22/22 14/23/23
f 14/23/23 11/22/22 12/24/24
f 15/25/25 13/26/26 16/27/27
f 16/27/27 13/26/26 14/28/28
f 17/29/29 15/30/30 18/31/31
f 18/31/31 15/30/30 16/32/32
f 19/33/33 17/34/34 20/35/35
f 20/35/35 17/34/34 18/36/36
f 21/37/37 19/38/38 22/39/39
f 22/39/39 19/38/38 20/40/40
f 2/41/41 21/42/42 3/43/43
f 3/43/43 21/42/42 22/44/44
f 4/45/45 3/46/46 18/47/47
f 18/47/47 3/46/46 22/48/48
f 18/47/47 22/48/48 20/49/49
f 18/47/47 16/50/50 4/45/45
f 4/45/45 16/50/50 14/51/51
f 4/45/45 14/51/51 12/52/52
f 10/53/53 8/54/54 12/52/52
f 12/52/52 8/54/54 6/55/55
f 12/52/52 6/55/55 4/45/45
f 19/56/56 21/57/57 17/58/58
f 17/58/58 21/57/57 2/59/59
f 17/58/58 2/59/59 1/60/60
f 5/61/61 11/62/62 1/60/60
f 1/60/60 11/62/62 13/63/63
f 1/60/60 13/63/63 15/64/64
f 5/61/61 7/65/65 11/62/62
f 11/62/62 7/65/65 9/66/66
f 15/64/64 17/58/58 1/60/60
# 22 vertices
# 66 texture params
# 66 normals
# 40 facets

# 1 groups
