o convex_0
v 0.187547 -0.262576 -0.074496
v 0.349243 -0.070851 0.075289
v 0.349243 -0.070851 -0.074496
v 0.924422 -0.262576 0.075289
v 0.924422 -0.076856 -0.074496
v 0.187547 -0.262576 0.075289
v 0.924422 -0.262576 -0.074496
v 0.924422 -0.076856 0.075289
v 0.127565 -0.070851 0.075289
v 0.127565 -0.070851 -0.074496
v 0.127565 -0.082843 0.075289
v 0.127565 -0.082843 -0.074496
f 1 11 12 
f 1 3 5 
f 3 2 5 
f 4 2 6 
f 1 4 6 
f 4 1 7 
f 1 5 7 
f 5 4 7 
f 2 4 8 
f 4 5 8 
f 5 2 8 
f 2 3 9 
f 6 2 9 
f 3 1 10 
f 9 3 10 
f 9 10 11 
f 1 6 11 
f 6 9 11 
f 10 1 12 
f 11 10 12 
o convex_1
v -0.148092 0.600096 0.075289
v -0.453602 -0.232619 -0.074496
v -0.453602 -0.232619 0.075289
v -0.016229 0.342509 -0.074496
v -0.231961 -0.232619 0.075289
v -0.142098 0.612169 -0.074496
v -0.016229 0.612169 0.075289
v -0.231961 -0.232619 -0.074496
v -0.016229 0.342509 0.075289
v -0.016229 0.612169 -0.074496
v -0.447565 -0.196647 -0.074496
v -0.447565 -0.196647 0.075289
v -0.160036 0.570162 -0.074496
v -0.142098 0.612169 0.075289
v -0.178060 0.522200 0.075289
v -0.453602 -0.214592 0.075289
f 24 23 28 
f 13 15 17 
f 15 14 17 
f 16 14 18 
f 13 17 19 
f 14 16 20 
f 16 17 20 
f 17 14 20 
f 17 16 21 
f 16 19 21 
f 19 17 21 
f 16 18 22 
f 19 16 22 
f 18 19 22 
f 18 14 23 
f 15 13 24 
f 13 18 25 
f 18 23 25 
f 18 13 26 
f 19 18 26 
f 13 19 26 
f 24 13 27 
f 23 24 27 
f 25 23 27 
f 13 25 27 
f 14 15 28 
f 23 14 28 
f 15 24 28 
o convex_2
v 0.343255 -0.052866 0.075289
v -0.016214 0.348482 -0.074496
v 0.121578 -0.064834 -0.074496
v 0.133577 0.576200 -0.074496
v -0.016214 0.612169 0.075289
v 0.121578 -0.064834 0.075289
v 0.343255 -0.070851 -0.074496
v 0.121578 0.612169 0.075289
v -0.016214 0.612169 -0.074496
v -0.016214 0.348482 0.075289
v 0.121578 0.612169 -0.074496
v 0.343255 -0.070851 0.075289
v 0.343255 -0.052866 -0.074496
v 0.127595 -0.070784 -0.074496
v 0.127595 -0.070784 0.075289
f 34 42 43 
f 31 30 32 
f 30 31 34 
f 29 33 34 
f 31 32 35 
f 29 32 36 
f 33 29 36 
f 33 36 37 
f 32 30 37 
f 30 33 37 
f 33 30 38 
f 30 34 38 
f 34 33 38 
f 36 32 39 
f 37 36 39 
f 32 37 39 
f 29 34 40 
f 35 29 40 
f 32 29 41 
f 35 32 41 
f 29 35 41 
f 34 31 42 
f 31 35 42 
f 35 40 42 
f 42 40 43 
f 40 34 43 
o convex_3
v -0.315862 -0.454279 -0.074496
v -0.237930 -0.232619 0.075289
v -0.237930 -0.244639 0.075289
v -0.795075 -0.232619 0.075289
v -0.237930 -0.232619 -0.074496
v -0.795075 -0.232619 -0.074496
v -0.795075 -0.454279 0.075289
v -0.795075 -0.454279 -0.074496
v -0.315862 -0.454279 0.075289
v -0.249928 -0.280570 -0.074496
v -0.303864 -0.424315 0.075289
v -0.249928 -0.280570 0.075289
v -0.237930 -0.244639 -0.074496
f 46 53 56 
f 46 45 47 
f 45 46 48 
f 47 45 48 
f 48 44 49 
f 47 48 49 
f 46 47 50 
f 47 49 50 
f 50 49 51 
f 49 44 51 
f 44 50 51 
f 50 44 52 
f 46 50 52 
f 44 48 53 
f 52 44 54 
f 46 52 54 
f 44 53 54 
f 54 53 55 
f 53 46 55 
f 46 54 55 
f 48 46 56 
f 53 48 56 
